<svg width="74" height="74" viewBox="0 0 74 74" fill="none" xmlns="http://www.w3.org/2000/svg">
<rect width="74" height="74" rx="10" fill="#F54900"/>
<path d="M44.0002 55.75C41.9065 55.75 40.3205 55.3984 39.2424 54.6953C38.1643 53.9922 37.2502 53.25 36.5002 52.4688C35.9065 51.8438 35.3362 51.2969 34.7893 50.8281C34.2424 50.3594 33.5471 50.125 32.7033 50.125C31.2971 50.125 29.7346 49.8828 28.0158 49.3984C26.2971 48.9141 24.6799 48.1172 23.1643 47.0078C21.6487 45.8984 20.3752 44.4531 19.344 42.6719C18.3127 40.8906 17.7815 38.7031 17.7502 36.1094C17.6877 30.8906 18.9768 26.6094 21.6174 23.2656C24.258 19.9219 27.9533 18.25 32.7033 18.25C34.9221 18.25 36.7971 18.5703 38.3283 19.2109C39.8596 19.8516 41.1799 20.6563 42.2893 21.625C43.3987 22.5937 44.3362 23.6641 45.1018 24.8359C45.8674 26.0078 46.594 27.1406 47.2815 28.2344C47.6565 28.8594 48.0315 29.4297 48.4065 29.9453C48.7815 30.4609 49.1877 30.9375 49.6252 31.375C51.5002 33.25 52.9065 34.8906 53.844 36.2969C54.7815 37.7031 55.2502 39.8281 55.2502 42.6719C55.2502 46.4219 54.0862 49.5391 51.758 52.0234C49.4299 54.5078 46.844 55.75 44.0002 55.75ZM44.0002 52C45.7815 52 47.4768 51.1172 49.0862 49.3516C50.6955 47.5859 51.5002 45.3594 51.5002 42.6719C51.5002 40.6094 51.1955 39.0937 50.5862 38.125C49.9768 37.1563 48.7815 35.7812 47.0002 34C46.344 33.375 45.758 32.6797 45.2424 31.9141C44.7268 31.1484 44.2033 30.3594 43.6721 29.5469C42.3908 27.5156 41.0315 25.75 39.594 24.25C38.1565 22.75 35.8596 22 32.7033 22C28.6721 22 25.7815 23.4453 24.0315 26.3359C22.2815 29.2266 21.4377 32.4688 21.5002 36.0625C21.5315 38.1563 21.9846 39.875 22.8596 41.2188C23.7346 42.5625 24.7737 43.6172 25.9768 44.3828C27.1799 45.1484 28.4065 45.6719 29.6565 45.9531C30.9065 46.2344 31.9221 46.375 32.7033 46.375C34.2971 46.375 35.5783 46.7578 36.5471 47.5234C37.5158 48.2891 38.3127 49 38.9377 49.6562C39.6252 50.375 40.2893 50.9453 40.9299 51.3672C41.5705 51.7891 42.594 52 44.0002 52ZM36.5002 43.5625C38.3127 43.5625 39.8596 42.9219 41.1408 41.6406C42.4221 40.3594 43.0627 38.8125 43.0627 37C43.0627 35.1875 42.4221 33.6406 41.1408 32.3594C39.8596 31.0781 38.3127 30.4375 36.5002 30.4375C34.6877 30.4375 33.1408 31.0781 31.8596 32.3594C30.5783 33.6406 29.9377 35.1875 29.9377 37C29.9377 38.8125 30.5783 40.3594 31.8596 41.6406C33.1408 42.9219 34.6877 43.5625 36.5002 43.5625Z" fill="white"/>
</svg>
