<svg width="74" height="74" viewBox="0 0 74 74" fill="none" xmlns="http://www.w3.org/2000/svg">
<rect width="74" height="74" rx="10" fill="#00BBA7"/>
<path d="M42.125 52C37.9375 52 34.3906 50.5469 31.4844 47.6406C28.5781 44.7344 27.125 41.1875 27.125 37C27.125 32.8438 28.5781 29.3047 31.4844 26.3828C34.3906 23.4609 37.9375 22 42.125 22C46.2812 22 49.8203 23.4609 52.7422 26.3828C55.6641 29.3047 57.125 32.8438 57.125 37C57.125 41.1875 55.6641 44.7344 52.7422 47.6406C49.8203 50.5469 46.2812 52 42.125 52ZM42.125 48.25C45.25 48.25 47.9062 47.1563 50.0938 44.9688C52.2813 42.7812 53.375 40.125 53.375 37C53.375 33.875 52.2813 31.2188 50.0938 29.0312C47.9062 26.8437 45.25 25.75 42.125 25.75C39 25.75 36.3438 26.8437 34.1562 29.0312C31.9687 31.2188 30.875 33.875 30.875 37C30.875 40.125 31.9687 42.7812 34.1562 44.9688C36.3438 47.1563 39 48.25 42.125 48.25ZM46.3906 43.9844L49.0625 41.3125L44 36.25V29.5H40.25V37.7969L46.3906 43.9844ZM17.75 31.375V27.625H25.25V31.375H17.75ZM15.875 38.875V35.125H25.25V38.875H15.875ZM17.75 46.375V42.625H25.25V46.375H17.75Z" fill="white"/>
</svg>
