<svg width="54" height="31" viewBox="0 0 54 31" fill="none" xmlns="http://www.w3.org/2000/svg">
<path d="M16.9283 5.28516C20.6033 2.44922 25.5627 0 31.5065 0C37.4502 0 42.4096 2.44922 46.0846 5.28516C49.7502 8.12109 52.3565 11.507 53.6783 13.8617C54.119 14.6523 54.119 15.5891 53.6783 16.3797C52.3565 18.7344 49.7502 22.1203 46.0846 24.9562C42.4096 27.8008 37.4596 30.2414 31.5065 30.2414C25.5533 30.2414 20.6033 27.7922 16.9283 24.9562C15.4096 23.7789 14.069 22.507 12.9252 21.2523L4.51583 25.7469C3.34395 26.3742 1.85333 26.2023 0.887705 25.3258C-0.07792 24.4492 -0.274795 23.0914 0.39083 22.0086L4.69395 15.125L0.400205 8.24141C-0.274795 7.15859 -0.0685451 5.80078 0.89708 4.92422C1.8627 4.04766 3.34395 3.87578 4.5252 4.50312L12.9346 8.99766C14.0783 7.74297 15.419 6.47109 16.9377 5.29375L16.9283 5.28516ZM42.0065 15.125C42.0065 13.6039 40.6658 12.375 39.0065 12.375C37.3471 12.375 36.0065 13.6039 36.0065 15.125C36.0065 16.6461 37.3471 17.875 39.0065 17.875C40.6658 17.875 42.0065 16.6461 42.0065 15.125Z" fill="#C70036"/>
</svg>
