<svg width="20" height="20" viewBox="0 0 20 20" fill="none" xmlns="http://www.w3.org/2000/svg">
<path d="M7.22215 2.09712C6.97806 1.85304 6.58234 1.85304 6.33826 2.09712C6.09418 2.3412 6.09418 2.73693 6.33826 2.98101C6.48365 3.12639 6.48298 3.36114 6.33872 3.5051C5.70569 4.13814 5.70456 5.16552 6.33872 5.79835C6.58306 6.04218 6.97878 6.04176 7.22261 5.79743C7.46643 5.55309 7.46601 5.15737 7.22168 4.91354C7.07742 4.76959 7.07676 4.53484 7.22215 4.38945C7.85584 3.75658 7.85502 2.73 7.22215 2.09712Z" fill="#C70036"/>
<path d="M15.4614 4.90581C15.7055 4.66173 15.7055 4.26601 15.4614 4.02192C15.2173 3.77785 14.8216 3.77785 14.5775 4.02192C13.9445 4.65496 13.9438 5.68188 14.578 6.31472C14.8223 6.55854 15.218 6.55812 15.4619 6.31379C15.7057 6.06946 15.7053 5.67373 15.461 5.42991C15.3167 5.28595 15.316 5.0512 15.4614 4.90581Z" fill="#C70036"/>
<path d="M3.50297 5.43061C3.2589 5.18654 2.86317 5.18654 2.61909 5.43061C2.37502 5.6747 2.37502 6.07042 2.61909 6.31451C2.76448 6.45989 2.76382 6.69464 2.61955 6.8386C2.37523 7.08242 2.37481 7.47815 2.61863 7.72248C2.86246 7.96681 3.25818 7.96723 3.50252 7.72341C4.13667 7.09057 4.13601 6.06365 3.50297 5.43061Z" fill="#C70036"/>
<path fill-rule="evenodd" clip-rule="evenodd" d="M9.99964 5.21826C9.04497 5.21826 8.27277 5.99247 8.27277 6.94596V7.51381C5.11684 8.18293 2.74769 10.6428 2.92594 13.6089C2.93916 13.8289 3.12144 14.0006 3.34185 14.0006H16.6582C16.8786 14.0006 17.061 13.8289 17.0741 13.6088C17.2516 10.6427 14.8822 8.18269 11.7266 7.51371V6.94596C11.7266 5.99217 10.9532 5.21826 9.99964 5.21826ZM10.4766 7.34737V6.94596C10.4766 6.68193 10.2623 6.46826 9.99964 6.46826C9.73655 6.46826 9.5228 6.68163 9.5228 6.94596V7.3474C9.68064 7.33847 9.8398 7.33394 10.0001 7.33394C10.16 7.33394 10.3189 7.33846 10.4766 7.34737Z" fill="#C70036"/>
<path d="M2.33159 15.0698C2.49993 14.9347 2.70614 14.8823 2.91652 14.8823H17.0831C17.2936 14.8823 17.4997 14.9347 17.6681 15.0698C17.8367 15.2052 17.9215 15.3867 17.9584 15.5583C18.0272 15.8785 17.9476 16.2421 17.8518 16.53C17.5834 17.3351 16.8289 17.8789 15.98 17.8789H4.01974C3.17077 17.8789 2.41634 17.3353 2.14797 16.5302C2.05214 16.2422 1.97244 15.8785 2.04128 15.5583C2.07817 15.3867 2.16298 15.2052 2.33159 15.0698Z" fill="#C70036"/>
</svg>
