<svg width="74" height="74" viewBox="0 0 74 74" fill="none" xmlns="http://www.w3.org/2000/svg">
<rect width="74" height="74" rx="10" fill="#62BB74"/>
<path d="M15.875 37C15.875 34.1562 16.4141 31.4844 17.4922 28.9844C18.5703 26.4844 20.0469 24.2969 21.9219 22.4219C23.7969 20.5469 25.9844 19.0703 28.4844 17.9922C30.9844 16.9141 33.6562 16.375 36.5 16.375C38.3125 16.375 40.0469 16.5938 41.7031 17.0312C43.3594 17.4687 44.9375 18.0937 46.4375 18.9062C47.4375 18.6562 48.5078 18.4844 49.6484 18.3906C50.7891 18.2969 52.0313 18.25 53.375 18.25C53.375 19.4375 53.3359 20.5547 53.2578 21.6016C53.1797 22.6484 53.0625 23.625 52.9062 24.5312C54.2188 26.2812 55.25 28.2109 56 30.3203C56.75 32.4297 57.125 34.6562 57.125 37C57.125 39.8438 56.5859 42.5156 55.5078 45.0156C54.4297 47.5156 52.9531 49.7031 51.0781 51.5781C49.2031 53.4531 47.0156 54.9297 44.5156 56.0078C42.0156 57.0859 39.3438 57.625 36.5 57.625C33.6562 57.625 30.9844 57.0859 28.4844 56.0078C25.9844 54.9297 23.7969 53.4531 21.9219 51.5781C20.0469 49.7031 18.5703 47.5156 17.4922 45.0156C16.4141 42.5156 15.875 39.8438 15.875 37ZM27.1719 37C27.1719 37.4688 27.25 37.9375 27.4062 38.4062C27.5625 38.875 27.7812 39.3125 28.0625 39.7188L32.75 46.2812L37.4375 39.7188C37.7188 39.3125 37.9375 38.875 38.0938 38.4062C38.25 37.9375 38.3281 37.4688 38.3281 37C38.3281 36.5 38.25 36.0234 38.0938 35.5703C37.9375 35.1172 37.7188 34.6875 37.4375 34.2812L32.75 27.6719L28.0625 34.2812C27.7812 34.6875 27.5625 35.125 27.4062 35.5938C27.25 36.0625 27.1719 36.5312 27.1719 37ZM19.625 37C19.625 41.6875 21.2656 45.6719 24.5469 48.9531C27.8281 52.2344 31.8125 53.875 36.5 53.875C41.1875 53.875 45.1719 52.2344 48.4531 48.9531C51.7344 45.6719 53.375 41.6875 53.375 37C53.375 35.5938 53.2031 34.2344 52.8594 32.9219C52.5156 31.6094 52.0312 30.3594 51.4062 29.1719C51.1562 29.6094 50.8984 30.0156 50.6328 30.3906C50.3672 30.7656 50.0625 31.125 49.7188 31.4688C49.2813 31.9062 48.8203 32.2891 48.3359 32.6172C47.8516 32.9453 47.3125 33.2344 46.7188 33.4844C47.625 34.2656 48.3359 35.1953 48.8516 36.2734C49.3672 37.3516 49.625 38.5312 49.625 39.8125C49.625 42.1562 48.8125 44.1484 47.1875 45.7891C45.5625 47.4297 43.5781 48.25 41.2344 48.25C40.4219 48.25 39.6484 48.1406 38.9141 47.9219C38.1797 47.7031 37.5 47.4062 36.875 47.0312L35.75 48.5781C35.4062 49.0469 34.9687 49.4219 34.4375 49.7031C33.9063 49.9844 33.3438 50.125 32.75 50.125C32.1562 50.125 31.6016 49.9844 31.0859 49.7031C30.5703 49.4219 30.1406 49.0469 29.7969 48.5781L25.0156 41.875C24.4844 41.1563 24.0938 40.3828 23.8438 39.5547C23.5937 38.7266 23.4688 37.875 23.4688 37C23.4688 36.125 23.5937 35.2656 23.8438 34.4219C24.0938 33.5781 24.4844 32.7969 25.0156 32.0781L29.7969 25.375C30.1406 24.9062 30.5703 24.5391 31.0859 24.2734C31.6016 24.0078 32.1562 23.875 32.75 23.875C33.3438 23.875 33.9063 24.0078 34.4375 24.2734C34.9687 24.5391 35.4062 24.9062 35.75 25.375L37.2969 27.5781C37.5469 26.6719 37.8594 25.8125 38.2344 25C38.6094 24.1875 39.0937 23.4375 39.6875 22.75C39.9688 22.4062 40.2734 22.0781 40.6016 21.7656C40.9297 21.4531 41.2812 21.1719 41.6562 20.9219C40.8437 20.6719 40.0078 20.4766 39.1484 20.3359C38.2891 20.1953 37.4063 20.125 36.5 20.125C31.8125 20.125 27.8281 21.7656 24.5469 25.0469C21.2656 28.3281 19.625 32.3125 19.625 37ZM40.5312 41.875L39.0312 43.9844C39.375 44.1406 39.7187 44.2656 40.0625 44.3594C40.4063 44.4531 40.7812 44.5 41.1875 44.5C42.5 44.5 43.6094 44.0469 44.5156 43.1406C45.4219 42.2344 45.875 41.125 45.875 39.8125C45.875 38.625 45.4922 37.6016 44.7266 36.7422C43.9609 35.8828 43.0156 35.375 41.8906 35.2188C41.9531 35.5312 42 35.8281 42.0312 36.1094C42.0625 36.3906 42.0781 36.6875 42.0781 37C42.0781 37.875 41.9531 38.7266 41.7031 39.5547C41.4531 40.3828 41.0625 41.1563 40.5312 41.875ZM49.6719 22.0938C48.2031 22.25 46.9219 22.5312 45.8281 22.9375C44.7344 23.3438 43.8125 23.9219 43.0625 24.6719C42.3125 25.4219 41.7109 26.3437 41.2578 27.4375C40.8047 28.5313 40.5 29.8594 40.3438 31.4219C41.8438 31.2656 43.1406 30.9766 44.2344 30.5547C45.3281 30.1328 46.25 29.5469 47 28.7969C47.75 28.0469 48.3438 27.1172 48.7812 26.0078C49.2187 24.8984 49.5156 23.5938 49.6719 22.0938ZM30.8281 41.5C30.5469 41.2188 30.4062 40.8828 30.4062 40.4922C30.4062 40.1016 30.5469 39.7656 30.8281 39.4844L32.0938 38.2188L30.4531 36.9062C30.1094 36.6562 29.9375 36.3203 29.9375 35.8984C29.9375 35.4766 30.0781 35.125 30.3594 34.8438L32.7031 32.5C32.9844 32.2188 33.3125 32.0781 33.6875 32.0781C34.0625 32.0781 34.3906 32.2188 34.6719 32.5C34.9531 32.7812 35.0938 33.1094 35.0938 33.4844C35.0938 33.8594 34.9531 34.1875 34.6719 34.4688L33.4062 35.7344L35.0469 37.0938C35.3906 37.3438 35.5625 37.6797 35.5625 38.1016C35.5625 38.5234 35.4219 38.875 35.1406 39.1562L32.7969 41.5C32.5156 41.7812 32.1875 41.9219 31.8125 41.9219C31.4375 41.9219 31.1094 41.7812 30.8281 41.5Z" fill="white"/>
</svg>
