<svg width="20" height="20" viewBox="0 0 20 20" fill="none" xmlns="http://www.w3.org/2000/svg">
<path fill-rule="evenodd" clip-rule="evenodd" d="M9.76021 10.5952C11.8402 10.5952 13.5202 8.91516 13.5202 6.8352C13.6002 4.7552 11.9202 3.0752 9.76021 3.0752C7.68024 3.0752 6.00024 4.7552 6.00024 6.8352C6.00024 8.91516 7.68024 10.5952 9.76021 10.5952Z" fill="#C70036"/>
<path fill-rule="evenodd" clip-rule="evenodd" d="M15.2803 15.6364C15.0403 14.7564 14.5603 13.9564 13.6003 13.3164C12.8003 12.7564 11.5203 12.3564 9.76031 12.3564C6.32035 12.3564 4.64035 13.9564 4.16035 15.6364C4.00035 16.1164 4.24035 16.5964 4.64035 16.8364C6.08035 17.7964 7.84035 18.2764 9.76031 18.2764C11.6003 18.2764 13.3603 17.7164 14.8003 16.8364C15.2003 16.5964 15.4403 16.1164 15.2803 15.6364Z" fill="#C70036"/>
</svg>
