<svg width="326" height="383" viewBox="0 0 326 383" fill="none" xmlns="http://www.w3.org/2000/svg">
<path d="M320.719 15.3804C320.719 15.3804 242.591 93.5082 232.438 103.724C223.111 112.988 0.315612 336.372 0.315612 336.372L0.296688 336.391C0.296688 336.391 70.3568 359.574 244.132 185.773C214.981 133.997 261.483 125.579 278.689 117.893C306.838 105.315 350.929 45.5027 350.929 45.5027L350.81 45.4213C350.941 45.3524 351.048 45.3084 351.161 45.1831C359.554 36.8774 359.554 23.3353 351.173 15.0797C342.899 6.7677 329.319 6.75498 321.057 15.0795C320.951 15.1233 320.825 15.2487 320.832 15.3551L320.719 15.3804Z" fill="#D0DCD9"/>
<path d="M114.979 181.714C145.284 169.021 147.242 218.541 155.356 232.864C159.634 240.406 165.778 248.187 174.264 251.248C203.803 261.914 249.857 203.55 260.94 252.329C266.487 276.753 259.601 301.987 282.194 320.158C297.645 332.588 316.825 332.388 332.155 320.842C338.318 316.198 330.531 307.058 324.419 311.722C300.58 329.926 280.297 298.97 275.022 280.392C272.381 271.098 273.821 261.868 272.91 252.498C272.077 243.91 271.093 236.689 265.554 229.723C254.556 215.884 235.009 215.045 219.786 221.43C216.072 222.983 212.833 225.585 209.241 227.324C199.616 231.977 180.399 238.434 169.705 233.035C160.064 228.173 157.19 193.177 150.357 183.273C141.009 169.729 126.694 163.859 111.454 170.288C104.413 173.252 107.864 184.692 114.979 181.714Z" fill="#C70036"/>
</svg>
