<svg width="192" height="48" viewBox="0 0 192 48" fill="none" xmlns="http://www.w3.org/2000/svg">
<path d="M18.377 26.0308H16.563V31.5559H18.377V26.0308Z" fill="white"/>
<path d="M13.8433 26.0308H12.0293V31.5559H13.8433V26.0308Z" fill="white"/>
<path d="M22.9107 26.0308H21.0967V31.5559H22.9107V26.0308Z" fill="white"/>
<path d="M26.615 10.1929C25.911 10.1929 25.215 10.2843 24.541 10.464C23.038 8.06751 20.452 6.5 17.521 6.5C14.59 6.5 12.004 8.06751 10.501 10.464C9.826 10.2843 9.13199 10.1929 8.42799 10.1929C3.79899 10.1929 0 14.1516 0 19.018C0 23.5724 3.326 27.3346 7.497 27.7958V34.795H12.794L22.913 41.5V34.795H27.447V27.7969C31.618 27.342 35 23.5787 35 19.018C35 14.1516 31.248 10.1929 26.616 10.1929H26.615ZM26.606 26.0235L25.631 25.91V33.0804H21.097V38.2221L13.276 33.0804H9.308V26.0245H8.435C4.76 26.0193 1.76599 22.8769 1.76599 19.018C1.76599 15.1591 4.75299 12.0125 8.42799 12.0125C8.85199 12.0125 9.27 12.0724 9.681 12.1554C9.319 13.1419 9.12 14.2178 9.12 15.3608H10.852C10.852 11.3591 13.843 8.35534 17.52 8.35534C21.197 8.35534 24.188 11.3591 24.188 15.3608H25.92C25.92 14.2178 25.721 13.1419 25.36 12.1554C25.771 12.0734 26.19 12.022 26.615 12.022C30.292 12.022 33.255 15.1602 33.255 19.0232C33.255 22.8863 30.261 25.9983 26.607 26.0245L26.606 26.0235Z" fill="white"/>
<path d="M57.5781 15.3594C56.5573 15.776 55.6302 15.9844 54.7969 15.9844C54.2865 15.9844 53.7031 15.8646 53.0469 15.625C52.3906 15.375 51.8958 15.25 51.5625 15.25C50.7812 15.25 50.0938 15.5469 49.5 16.1406C48.9062 16.7344 48.6094 17.4219 48.6094 18.2031C48.6094 18.901 48.9427 19.474 49.6094 19.9219C49.9531 20.1823 50.125 20.4062 50.125 20.5938C50.125 20.9062 49.9219 21.2917 49.5156 21.75C49.1094 22.1979 48.724 22.4219 48.3594 22.4219C47.9427 22.4219 47.5625 22.1406 47.2188 21.5781C46.875 21.0156 46.7031 20.3802 46.7031 19.6719C46.7031 18.1094 47.4531 16.5625 48.9531 15.0312C50.4531 13.5 51.9635 12.7344 53.4844 12.7344C53.9323 12.7344 54.5156 12.8646 55.2344 13.125C55.9531 13.375 56.5729 13.5 57.0938 13.5C57.6562 13.5 58.1927 13.3177 58.7031 12.9531C58.9323 12.8073 59.1094 12.7344 59.2344 12.7344C59.3906 12.7344 59.599 12.8177 59.8594 12.9844C60.1302 13.1406 60.2656 13.3125 60.2656 13.5C60.2656 13.6042 59.9896 13.9635 59.4375 14.5781C58.6042 15.4844 58.026 16.4792 57.7031 17.5625C57.3802 18.6354 57.0521 20.2969 56.7188 22.5469C56.3854 24.7969 56.0156 26.6354 55.6094 28.0625C55.2135 29.4792 54.5938 30.7656 53.75 31.9219C52.9167 33.0677 51.9323 33.9271 50.7969 34.5C49.6615 35.0729 48.4219 35.3594 47.0781 35.3594C45.4844 35.3594 44.1979 34.9948 43.2188 34.2656C42.25 33.526 41.7656 32.8229 41.7656 32.1562C41.7656 31.7708 42.1406 31.2552 42.8906 30.6094C43.6406 29.9531 44.1302 29.625 44.3594 29.625C44.6615 29.625 44.849 29.7344 44.9219 29.9531C44.9948 30.1719 45.0312 30.5521 45.0312 31.0938C45.0312 32.0104 45.2344 32.75 45.6406 33.3125C46.0573 33.8646 46.599 34.1406 47.2656 34.1406C48.2552 34.1406 49.0938 33.6198 49.7812 32.5781C50.4792 31.5365 51.0469 29.6354 51.4844 26.875C51.9219 24.1146 52.5104 21.9948 53.25 20.5156C53.9896 19.0365 55.4323 17.3177 57.5781 15.3594ZM76.8337 31.5469C74.4275 34.0885 72.365 35.3594 70.6462 35.3594C69.9483 35.3594 69.3858 35.1146 68.9587 34.625C68.5317 34.1354 68.3181 33.4792 68.3181 32.6562C68.3181 31.5417 68.7765 29.8385 69.6931 27.5469C70.1827 26.3177 70.4275 25.5365 70.4275 25.2031C70.4275 24.8698 70.2973 24.7031 70.0369 24.7031C69.891 24.7031 69.6983 24.776 69.4587 24.9219C69.24 25.0677 68.9848 25.2708 68.6931 25.5312C68.4327 25.7708 68.141 26.0625 67.8181 26.4062C67.5369 26.6979 67.2348 27.0312 66.9119 27.4062L66.0369 28.4219C65.6515 28.8906 65.4119 29.3854 65.3181 29.9062C65.1619 30.7917 65.0577 31.6042 65.0056 32.3438C64.9744 32.8958 64.9587 33.6406 64.9587 34.5781L61.5056 35.3906C61.391 33.9844 61.3337 32.9375 61.3337 32.25C61.3337 30.5729 61.5265 28.9844 61.9119 27.4844C62.3077 25.9844 62.9379 24.2969 63.8025 22.4219L67.615 21.6875C66.8129 23.8438 66.2869 25.5417 66.0369 26.7812C67.7452 24.875 69.0994 23.5573 70.0994 22.8281C71.1098 22.0885 72.0056 21.7188 72.7869 21.7188C73.3181 21.7188 73.7608 21.9219 74.115 22.3281C74.4692 22.724 74.6462 23.224 74.6462 23.8281C74.6462 24.8281 74.1983 26.474 73.3025 28.7656C72.6879 30.3385 72.3806 31.3594 72.3806 31.8281C72.3806 32.4531 72.6358 32.7656 73.1462 32.7656C73.9067 32.7656 75.1358 31.7604 76.8337 29.75V31.5469ZM94.4175 31.5469C93.0946 32.9323 91.5112 33.9531 89.6675 34.6094C88.8029 37.3073 87.704 39.3854 86.3706 40.8438C85.0477 42.3021 83.6415 43.0312 82.1519 43.0312C81.3394 43.0312 80.6831 42.776 80.1831 42.2656C79.6831 41.7552 79.4331 41.0833 79.4331 40.25C79.4331 39.1354 79.9279 38.1354 80.9175 37.25C81.9175 36.3646 83.6102 35.5104 85.9956 34.6875L86.6675 31.6094C85.6675 32.7344 84.8029 33.5625 84.0737 34.0938C83.3446 34.6146 82.6102 34.875 81.8706 34.875C81.006 34.875 80.2977 34.4688 79.7456 33.6562C79.1935 32.8438 78.9175 31.7865 78.9175 30.4844C78.9175 28.3594 79.7248 26.3698 81.3394 24.5156C82.9644 22.651 84.6883 21.7188 86.5112 21.7188C87.5217 21.7188 88.4175 22.1458 89.1987 23C89.6675 22.8333 90.2769 22.5833 91.0269 22.25L92.1362 21.75H92.4956C92.0894 22.9792 91.7769 24.1771 91.5581 25.3438L90.0894 33.1719C91.4956 32.6406 92.9383 31.5 94.4175 29.75V31.5469ZM84.355 32.0625C85.0946 32.0625 85.7508 31.625 86.3237 30.75C86.8967 29.875 87.3394 28.7656 87.6519 27.4219C87.9748 26.0781 88.1362 25.1458 88.1362 24.625C88.1362 24.1354 88.0112 23.7344 87.7612 23.4219C87.5217 23.099 87.2196 22.9375 86.855 22.9375C85.7508 22.9375 84.7873 23.6823 83.9644 25.1719C83.1415 26.6615 82.73 28.1771 82.73 29.7188C82.73 30.4375 82.8758 31.0104 83.1675 31.4375C83.4696 31.8542 83.8654 32.0625 84.355 32.0625ZM85.6675 36.0625C82.3029 37.2708 80.6206 38.6667 80.6206 40.25C80.6206 40.7188 80.7612 41.099 81.0425 41.3906C81.3237 41.6927 81.6831 41.8438 82.1206 41.8438C82.8706 41.8438 83.5217 41.3698 84.0737 40.4219C84.6258 39.474 85.1571 38.0208 85.6675 36.0625ZM108.345 31.5469C105.73 34.1094 103.715 35.3906 102.298 35.3906C101.663 35.3906 101.126 35.125 100.689 34.5938C100.251 34.0521 100.033 33.3854 100.033 32.5938C100.033 31.125 100.819 29.1562 102.392 26.6875C101.621 27.0833 100.777 27.3594 99.8606 27.5156C99.1835 28.7656 98.121 30.1094 96.6731 31.5469H96.3138V30.1406C97.1263 29.2969 97.8606 28.3906 98.5169 27.4219C97.621 27.026 97.1731 26.4375 97.1731 25.6562C97.1731 24.8542 97.444 24 97.9856 23.0938C98.5377 22.1771 99.2929 21.7188 100.251 21.7188C101.064 21.7188 101.47 22.1354 101.47 22.9688C101.47 23.625 101.236 24.5625 100.767 25.7812C102.496 25.5938 104.006 24.2708 105.298 21.8125L106.72 21.75L105.267 25.75C104.663 27.4375 104.272 28.5885 104.095 29.2031C103.918 29.8073 103.829 30.3438 103.829 30.8125C103.829 31.25 103.928 31.599 104.126 31.8594C104.335 32.1198 104.611 32.25 104.954 32.25C105.329 32.25 105.689 32.125 106.033 31.875C106.376 31.6146 107.147 30.9062 108.345 29.75V31.5469ZM122.272 31.5469C120.95 32.849 119.762 33.8125 118.71 34.4375C117.658 35.0521 116.496 35.3594 115.226 35.3594C113.809 35.3594 112.663 34.9062 111.788 34C110.924 33.0938 110.491 31.901 110.491 30.4219C110.491 28.2135 111.257 26.2188 112.788 24.4375C114.319 22.6458 116.017 21.75 117.882 21.75C118.851 21.75 119.627 22 120.21 22.5C120.793 23 121.085 23.6562 121.085 24.4688C121.085 26.625 118.793 28.375 114.21 29.7188C114.627 31.75 115.715 32.7656 117.476 32.7656C118.163 32.7656 118.819 32.5833 119.444 32.2188C120.069 31.8438 121.012 31.0208 122.272 29.75V31.5469ZM114.085 28.6562C116.752 27.9062 118.085 26.5208 118.085 24.5C118.085 23.5 117.72 23 116.991 23C116.304 23 115.647 23.526 115.022 24.5781C114.397 25.6198 114.085 26.9792 114.085 28.6562ZM136.2 31.5469C134.877 32.849 133.69 33.8125 132.637 34.4375C131.585 35.0521 130.424 35.3594 129.153 35.3594C127.736 35.3594 126.591 34.9062 125.716 34C124.851 33.0938 124.419 31.901 124.419 30.4219C124.419 28.2135 125.184 26.2188 126.716 24.4375C128.247 22.6458 129.945 21.75 131.809 21.75C132.778 21.75 133.554 22 134.137 22.5C134.721 23 135.012 23.6562 135.012 24.4688C135.012 26.625 132.721 28.375 128.137 29.7188C128.554 31.75 129.643 32.7656 131.403 32.7656C132.091 32.7656 132.747 32.5833 133.372 32.2188C133.997 31.8438 134.94 31.0208 136.2 29.75V31.5469ZM128.012 28.6562C130.679 27.9062 132.012 26.5208 132.012 24.5C132.012 23.5 131.648 23 130.919 23C130.231 23 129.575 23.526 128.95 24.5781C128.325 25.6198 128.012 26.9792 128.012 28.6562ZM155.128 31.5469C153.628 33.0365 152.482 34.0469 151.69 34.5781C150.909 35.099 150.216 35.3594 149.612 35.3594C148.872 35.3594 148.284 35 147.846 34.2812C147.419 33.5625 147.2 32.5104 147.19 31.125C146.336 32.5104 145.404 33.5625 144.393 34.2812C143.393 35 142.487 35.3594 141.674 35.3594C140.789 35.3594 140.008 34.9427 139.331 34.1094C138.654 33.2656 138.315 32.2812 138.315 31.1562C138.315 28.8333 139.159 26.6823 140.846 24.7031C142.544 22.7135 144.367 21.7188 146.315 21.7188C146.857 21.7188 147.279 21.7969 147.581 21.9531C147.893 22.1094 148.232 22.375 148.596 22.75L150.831 13.4062C152.654 12.9792 153.883 12.7656 154.518 12.7656C154.726 12.7656 154.831 12.849 154.831 13.0156C154.831 13.1302 154.57 14.2083 154.049 16.25C151.966 24.4167 150.924 29.3438 150.924 31.0312C150.924 31.4271 151.008 31.7448 151.174 31.9844C151.341 32.224 151.56 32.3438 151.831 32.3438C152.497 32.3438 153.596 31.4792 155.128 29.75V31.5469ZM143.831 32.375C144.851 32.375 145.805 31.5104 146.69 29.7812C147.575 28.0521 148.018 26.4323 148.018 24.9219C148.018 24.3073 147.878 23.8177 147.596 23.4531C147.325 23.0885 146.966 22.9062 146.518 22.9062C145.549 22.9062 144.612 23.8125 143.706 25.625C142.799 27.4271 142.346 29.0573 142.346 30.5156C142.346 31.0885 142.476 31.5417 142.737 31.875C143.008 32.2083 143.372 32.375 143.831 32.375ZM174.055 31.5469C172.732 32.8281 170.618 34.1406 167.711 35.4844C166.743 38.2344 165.654 40.1771 164.446 41.3125C163.237 42.4583 161.977 43.0312 160.664 43.0312C159.998 43.0312 159.461 42.8281 159.055 42.4219C158.659 42.0156 158.461 41.474 158.461 40.7969C158.461 38.7448 160.341 36.8854 164.102 35.2188L165.055 31.8594C163.086 34.0573 161.357 35.1562 159.868 35.1562C159.065 35.1562 158.414 34.8281 157.914 34.1719C157.425 33.5156 157.18 32.6406 157.18 31.5469C157.18 29.974 157.524 28.2865 158.211 26.4844L159.711 22.5156L164.258 21.7188L162.305 26.3594C161.409 28.599 160.961 30.2865 160.961 31.4219C160.961 32.3594 161.279 32.8281 161.914 32.8281C162.56 32.8281 163.295 32.3073 164.118 31.2656C164.951 30.224 165.649 28.9427 166.211 27.4219L167.993 22.5156L172.258 21.7188L168.196 33.9375C170.581 32.8438 172.534 31.4479 174.055 29.75V31.5469ZM163.649 36.7656C162.368 37.3385 161.378 37.9792 160.68 38.6875C159.993 39.4062 159.649 40.1094 159.649 40.7969C159.649 41.4948 159.946 41.8438 160.539 41.8438C161.696 41.8438 162.732 40.151 163.649 36.7656Z" fill="white"/>
</svg>
