<svg width="45" height="45" viewBox="0 0 45 45" fill="none" xmlns="http://www.w3.org/2000/svg">
<path d="M18.75 37.5H26.25V35.4375L28.5938 34.5C30.625 33.6875 32.3516 32.5547 33.7734 31.1016C35.1953 29.6484 36.2188 28.0312 36.8438 26.25H8.15625C8.78125 28.0312 9.79688 29.6484 11.2031 31.1016C12.6094 32.5547 14.3438 33.6875 16.4062 34.5L18.75 35.4375V37.5ZM15 41.25V37.9688C11.6562 36.6562 8.94531 34.625 6.86719 31.875C4.78906 29.125 3.75 26 3.75 22.5H7.5V7.5L41.25 3.75V6.5625L19.6875 9V12.1875H41.25V15H19.6875V22.5H41.25C41.25 26 40.2109 29.125 38.1328 31.875C36.0547 34.625 33.3438 36.6562 30 37.9688V41.25H15ZM15 12.1875H16.875V9.28125L15 9.51562V12.1875ZM10.3125 12.1875H12.1875V9.84375L10.3125 10.0312V12.1875ZM15 22.5H16.875V15H15V22.5ZM10.3125 22.5H12.1875V15H10.3125V22.5Z" fill="white"/>
</svg>
