<svg width="20" height="20" viewBox="0 0 20 20" fill="none" xmlns="http://www.w3.org/2000/svg">
<path fill-rule="evenodd" clip-rule="evenodd" d="M3.33537 8.81778C3.33537 5.58363 5.96703 2.9528 9.20117 2.9528C12.4345 2.9528 15.0662 5.58363 15.0662 8.81778C15.0662 12.0519 12.4345 14.6836 9.20117 14.6836C5.96703 14.6836 3.33537 12.0519 3.33537 8.81778ZM18.7478 17.5336L14.9153 13.7111C16.0453 12.3936 16.7328 10.6861 16.7328 8.81778C16.7328 4.6653 13.3537 1.28613 9.20117 1.28613C5.04787 1.28613 1.6687 4.6653 1.6687 8.81778C1.6687 12.9711 5.04787 16.3503 9.20117 16.3503C10.8862 16.3503 12.4387 15.7869 13.6945 14.8478L17.5712 18.7136L18.7478 17.5336Z" fill="black"/>
</svg>
