<svg width="20" height="20" viewBox="0 0 20 20" fill="none" xmlns="http://www.w3.org/2000/svg">
<path fill-rule="evenodd" clip-rule="evenodd" d="M12.8013 13.0875C12.6846 13.2875 12.4763 13.3958 12.268 13.3958C12.1596 13.3958 12.043 13.3625 11.943 13.3042L9.66796 11.9375C9.47629 11.8292 9.35963 11.6208 9.35963 11.4042V8.4625C9.35963 8.11247 9.64296 7.83747 9.98463 7.83747C10.3263 7.83747 10.6096 8.11247 10.6096 8.4625V11.0458L12.5846 12.2375C12.8846 12.4125 12.9846 12.7958 12.8013 13.0875ZM10.1263 4.1958C6.45965 4.1958 3.47632 7.17913 3.47632 10.8458C3.47632 14.5125 6.45965 17.4958 10.1263 17.4958C13.793 17.4958 16.7763 14.5125 16.7763 10.8458C16.7763 7.17913 13.793 4.1958 10.1263 4.1958Z" fill="#C70036"/>
<path fill-rule="evenodd" clip-rule="evenodd" d="M5.66371 3.66862C5.95787 3.48696 6.04871 3.10196 5.86704 2.80862C5.68454 2.51446 5.29954 2.42362 5.00704 2.60529C3.86287 3.31112 2.86287 4.26362 2.11537 5.35946C1.92121 5.64446 1.99454 6.03363 2.27954 6.22779C2.38704 6.30196 2.50954 6.33696 2.63121 6.33696C2.83121 6.33696 3.02704 6.24112 3.14787 6.06446C3.79787 5.11196 4.66787 4.28363 5.66371 3.66862Z" fill="#C70036"/>
<path fill-rule="evenodd" clip-rule="evenodd" d="M18.1481 5.36021C17.3931 4.25188 16.3898 3.29604 15.2473 2.59604C14.9531 2.41604 14.5681 2.50771 14.3873 2.80188C14.2073 3.09688 14.299 3.48104 14.5931 3.66188C15.5873 4.27021 16.459 5.10104 17.1156 6.06438C17.2365 6.24188 17.4323 6.33688 17.6323 6.33688C17.7531 6.33688 17.8756 6.30188 17.984 6.22854C18.269 6.03438 18.3423 5.64521 18.1481 5.36021Z" fill="#C70036"/>
</svg>
