<svg width="45" height="45" viewBox="0 0 45 45" fill="none" xmlns="http://www.w3.org/2000/svg">
<path d="M1.875 22.5C1.875 19.6562 2.41406 16.9844 3.49219 14.4844C4.57031 11.9844 6.04688 9.79688 7.92188 7.92188C9.79688 6.04688 11.9844 4.57031 14.4844 3.49219C16.9844 2.41406 19.6562 1.875 22.5 1.875C24.3125 1.875 26.0469 2.09375 27.7031 2.53125C29.3594 2.96875 30.9375 3.59375 32.4375 4.40625C33.4375 4.15625 34.5078 3.98438 35.6484 3.89062C36.7891 3.79688 38.0313 3.75 39.375 3.75C39.375 4.9375 39.3359 6.05469 39.2578 7.10156C39.1797 8.14844 39.0625 9.125 38.9062 10.0312C40.2188 11.7812 41.25 13.7109 42 15.8203C42.75 17.9297 43.125 20.1562 43.125 22.5C43.125 25.3438 42.5859 28.0156 41.5078 30.5156C40.4297 33.0156 38.9531 35.2031 37.0781 37.0781C35.2031 38.9531 33.0156 40.4297 30.5156 41.5078C28.0156 42.5859 25.3438 43.125 22.5 43.125C19.6562 43.125 16.9844 42.5859 14.4844 41.5078C11.9844 40.4297 9.79688 38.9531 7.92188 37.0781C6.04688 35.2031 4.57031 33.0156 3.49219 30.5156C2.41406 28.0156 1.875 25.3438 1.875 22.5ZM13.1719 22.5C13.1719 22.9688 13.25 23.4375 13.4062 23.9062C13.5625 24.375 13.7812 24.8125 14.0625 25.2188L18.75 31.7812L23.4375 25.2188C23.7188 24.8125 23.9375 24.375 24.0938 23.9062C24.25 23.4375 24.3281 22.9688 24.3281 22.5C24.3281 22 24.25 21.5234 24.0938 21.0703C23.9375 20.6172 23.7188 20.1875 23.4375 19.7812L18.75 13.1719L14.0625 19.7812C13.7812 20.1875 13.5625 20.625 13.4062 21.0938C13.25 21.5625 13.1719 22.0312 13.1719 22.5ZM5.625 22.5C5.625 27.1875 7.26562 31.1719 10.5469 34.4531C13.8281 37.7344 17.8125 39.375 22.5 39.375C27.1875 39.375 31.1719 37.7344 34.4531 34.4531C37.7344 31.1719 39.375 27.1875 39.375 22.5C39.375 21.0938 39.2031 19.7344 38.8594 18.4219C38.5156 17.1094 38.0312 15.8594 37.4062 14.6719C37.1562 15.1094 36.8984 15.5156 36.6328 15.8906C36.3672 16.2656 36.0625 16.625 35.7188 16.9688C35.2813 17.4062 34.8203 17.7891 34.3359 18.1172C33.8516 18.4453 33.3125 18.7344 32.7188 18.9844C33.625 19.7656 34.3359 20.6953 34.8516 21.7734C35.3672 22.8516 35.625 24.0312 35.625 25.3125C35.625 27.6562 34.8125 29.6484 33.1875 31.2891C31.5625 32.9297 29.5781 33.75 27.2344 33.75C26.4219 33.75 25.6484 33.6406 24.9141 33.4219C24.1797 33.2031 23.5 32.9062 22.875 32.5312L21.75 34.0781C21.4062 34.5469 20.9687 34.9219 20.4375 35.2031C19.9063 35.4844 19.3438 35.625 18.75 35.625C18.1562 35.625 17.6016 35.4844 17.0859 35.2031C16.5703 34.9219 16.1406 34.5469 15.7969 34.0781L11.0156 27.375C10.4844 26.6563 10.0938 25.8828 9.84375 25.0547C9.59375 24.2266 9.46875 23.375 9.46875 22.5C9.46875 21.625 9.59375 20.7656 9.84375 19.9219C10.0938 19.0781 10.4844 18.2969 11.0156 17.5781L15.7969 10.875C16.1406 10.4062 16.5703 10.0391 17.0859 9.77344C17.6016 9.50781 18.1562 9.375 18.75 9.375C19.3438 9.375 19.9063 9.50781 20.4375 9.77344C20.9687 10.0391 21.4062 10.4062 21.75 10.875L23.2969 13.0781C23.5469 12.1719 23.8594 11.3125 24.2344 10.5C24.6094 9.6875 25.0937 8.9375 25.6875 8.25C25.9688 7.90625 26.2734 7.57812 26.6016 7.26562C26.9297 6.95313 27.2812 6.67188 27.6562 6.42188C26.8437 6.17187 26.0078 5.97656 25.1484 5.83594C24.2891 5.69531 23.4063 5.625 22.5 5.625C17.8125 5.625 13.8281 7.26562 10.5469 10.5469C7.26562 13.8281 5.625 17.8125 5.625 22.5ZM26.5312 27.375L25.0312 29.4844C25.375 29.6406 25.7187 29.7656 26.0625 29.8594C26.4063 29.9531 26.7812 30 27.1875 30C28.5 30 29.6094 29.5469 30.5156 28.6406C31.4219 27.7344 31.875 26.625 31.875 25.3125C31.875 24.125 31.4922 23.1016 30.7266 22.2422C29.9609 21.3828 29.0156 20.875 27.8906 20.7188C27.9531 21.0312 28 21.3281 28.0312 21.6094C28.0625 21.8906 28.0781 22.1875 28.0781 22.5C28.0781 23.375 27.9531 24.2266 27.7031 25.0547C27.4531 25.8828 27.0625 26.6563 26.5312 27.375ZM35.6719 7.59375C34.2031 7.75 32.9219 8.03125 31.8281 8.4375C30.7344 8.84375 29.8125 9.42188 29.0625 10.1719C28.3125 10.9219 27.7109 11.8437 27.2578 12.9375C26.8047 14.0313 26.5 15.3594 26.3438 16.9219C27.8438 16.7656 29.1406 16.4766 30.2344 16.0547C31.3281 15.6328 32.25 15.0469 33 14.2969C33.75 13.5469 34.3438 12.6172 34.7812 11.5078C35.2187 10.3984 35.5156 9.09375 35.6719 7.59375ZM16.8281 27C16.5469 26.7188 16.4062 26.3828 16.4062 25.9922C16.4062 25.6016 16.5469 25.2656 16.8281 24.9844L18.0938 23.7188L16.4531 22.4062C16.1094 22.1562 15.9375 21.8203 15.9375 21.3984C15.9375 20.9766 16.0781 20.625 16.3594 20.3438L18.7031 18C18.9844 17.7188 19.3125 17.5781 19.6875 17.5781C20.0625 17.5781 20.3906 17.7188 20.6719 18C20.9531 18.2812 21.0938 18.6094 21.0938 18.9844C21.0938 19.3594 20.9531 19.6875 20.6719 19.9688L19.4062 21.2344L21.0469 22.5938C21.3906 22.8438 21.5625 23.1797 21.5625 23.6016C21.5625 24.0234 21.4219 24.375 21.1406 24.6562L18.7969 27C18.5156 27.2812 18.1875 27.4219 17.8125 27.4219C17.4375 27.4219 17.1094 27.2812 16.8281 27Z" fill="white"/>
</svg>
